<svg width="16" height="17" viewBox="0 0 16 17" fill="none" xmlns="http://www.w3.org/2000/svg">
<path opacity="0.5" fill-rule="evenodd" clip-rule="evenodd" d="M8.00001 14.4999C7.4884 14.4999 6.98963 14.4537 6.50473 14.3734L3.00006 16.5001V12.9596C1.17275 11.6767 0 9.70951 0 7.49994C0 3.63404 3.58177 0.499969 8.00001 0.499969C12.4183 0.499969 16 3.63404 16 7.49994C16 11.3661 12.4183 14.4999 8.00001 14.4999ZM8.00001 1.50014C4.13402 1.50014 1.00001 4.18641 1.00001 7.49994C1.00001 9.53322 2.18286 11.3268 3.98765 12.4121L3.95611 14.7313L6.30988 13.3165C6.85204 13.432 7.41613 13.5 8.00001 13.5C11.866 13.5 15.0001 10.8138 15.0001 7.49994C15.0001 4.18641 11.866 1.50014 8.00001 1.50014ZM11.5 7.00002H4.50002C4.22388 7.00002 4 6.77605 4 6.50005C4 6.22379 4.22388 6 4.50002 6H11.5C11.7761 6 12 6.22379 12 6.50005C12 6.77605 11.7761 7.00002 11.5 7.00002ZM5.50003 9.00002H10.5C10.7762 9.00002 11.0001 9.22385 11.0001 9.49999C11.0001 9.77627 10.7762 10.0001 10.5 10.0001H5.50003C5.22383 10.0001 5.00002 9.77627 5.00002 9.49999C5.00002 9.22385 5.22383 9.00002 5.50003 9.00002Z" fill="white"/>
</svg>
