<svg width="14" height="14" viewBox="0 0 14 14" fill="none" xmlns="http://www.w3.org/2000/svg">
<path opacity="0.4" fill-rule="evenodd" clip-rule="evenodd" d="M9.27466 12.1334C9.05945 13.1983 8.12301 13.9999 6.99999 13.9999C5.87696 13.9999 4.94052 13.1983 4.7254 12.1334H0.5L2.3571 8.39998V4.66659C2.3571 2.08932 4.43584 -3.05176e-05 6.99999 -3.05176e-05C9.56421 -3.05176e-05 11.6429 2.08932 11.6429 4.66659V8.39998L13.5 12.1334H9.27466ZM6.99999 13.0667C7.60557 13.0667 8.11566 12.6759 8.3076 12.1334H5.69246C5.88431 12.6759 6.39441 13.0667 6.99999 13.0667ZM10.7143 8.39998V4.66659C10.7143 2.60488 9.05135 0.933333 6.99999 0.933333C4.94861 0.933333 3.2857 2.60488 3.2857 4.66659V8.39998L1.89281 11.2H12.1071L10.7143 8.39998Z" fill="black"/>
</svg>
