<svg width="14" height="15" fill="none" xmlns="http://www.w3.org/2000/svg"><path opacity=".6" fill-rule="evenodd" clip-rule="evenodd" d="M13.537 5.85l-1.084.63c.06.332.1.67.1 1.02s-.04.688-.1 1.02l1.084.63a.938.938 0 01.339 1.275l-.926 1.617a.922.922 0 01-1.264.341l-1.095-.637a5.539 5.539 0 01-1.74 1.029v.792a.93.93 0 01-.925.933H6.074a.93.93 0 01-.925-.933v-.792a5.54 5.54 0 01-1.74-1.03l-1.095.638a.922.922 0 01-1.264-.341l-.926-1.617a.938.938 0 01.34-1.275l1.083-.63a5.63 5.63 0 01-.1-1.02c0-.35.04-.688.1-1.02L.463 5.85a.938.938 0 01-.339-1.275l.926-1.617a.921.921 0 011.264-.341l1.095.637a5.535 5.535 0 011.74-1.029v-.792A.93.93 0 016.074.5h1.852a.93.93 0 01.925.933v.792c.647.231 1.228.59 1.74 1.03l1.095-.638a.921.921 0 011.264.341l.926 1.617a.938.938 0 01-.34 1.275zm-.694-1.213l-.463-.808a.46.46 0 00-.632-.17l-1.286.748a4.611 4.611 0 00-2.536-1.48V1.9a.465.465 0 00-.463-.467h-.926a.465.465 0 00-.463.467v1.027a4.61 4.61 0 00-2.536 1.48l-1.286-.749a.46.46 0 00-.632.171l-.463.808a.469.469 0 00.17.638l1.29.752A4.67 4.67 0 002.373 7.5c0 .517.092 1.01.246 1.474l-1.291.751a.469.469 0 00-.17.638l.463.808a.46.46 0 00.632.17l1.286-.748a4.611 4.611 0 002.536 1.48V13.1c0 .258.208.467.463.467h.926a.465.465 0 00.463-.467v-1.027a4.611 4.611 0 002.536-1.48l1.286.749a.46.46 0 00.632-.171l.463-.808a.469.469 0 00-.17-.638l-1.29-.751c.153-.465.245-.957.245-1.474 0-.516-.092-1.01-.246-1.473l1.291-.752a.469.469 0 00.17-.638zM7 9.833A2.324 2.324 0 014.686 7.5 2.324 2.324 0 017 5.167 2.324 2.324 0 019.314 7.5 2.324 2.324 0 017 9.833zM7 6.1c-.767 0-1.388.627-1.388 1.4 0 .773.621 1.4 1.388 1.4.767 0 1.388-.627 1.388-1.4 0-.773-.621-1.4-1.388-1.4z" fill="#fff"/></svg>