<svg width="15" height="14" fill="none" xmlns="http://www.w3.org/2000/svg"><path opacity=".5" fill-rule="evenodd" clip-rule="evenodd" d="M14.364 13.866a.458.458 0 01-.641 0l-3.628-3.57A5.92 5.92 0 016.39 11.59C3.136 11.59.5 8.996.5 5.795.5 2.595 3.136 0 6.389 0c3.252 0 5.889 2.595 5.889 5.795A5.716 5.716 0 0110.75 9.68l3.614 3.556a.441.441 0 010 .631zM6.389.892c-2.752 0-4.983 2.195-4.983 4.903 0 2.708 2.23 4.904 4.983 4.904 2.752 0 4.982-2.196 4.982-4.904 0-2.708-2.23-4.903-4.982-4.903z" fill="#000"/></svg>